# xmcd
#
# Track frame offsets:
#	150
#	10638
#	31354
#	36863
#	48170
#	68398
#	82560
#	98835
#	109953
#	130244
#	155715
#	170716
#	182421
#	192893
#	218802
#	229925
#	250444
#	263112
#	279414
#	292087
#	303315
#
# Disc length: 4296 seconds
#
# Revision: 1
# Processed by: cddbd v1.5.2PL0 Copyright (c) Steve Scherf et al.
# Submitted via: audiograbber 1.83.01
#
DISCID=1d10c615
DTITLE=Diverse - A Gospel Christmas
DYEAR=1900
DGENRE=
TTITLE0=Dinah Washington - Silent Night
TTITLE1=Joan Orleans - Oh happy day
TTITLE2=Gospel Singers - I will follow him
TTITLE3=Otis Redding - Merry Christmas Baby
TTITLE4=Albert King - Christmas comes but once a year
TTITLE5=Golden Gate Quartet - Hush
TTITLE6=Harry Belafonte - Goin' down Jordan
TTITLE7=Staple Singers - Who took the merry out of Christmas
TTITLE8=Marion Williams - I shall be released
TTITLE9=Richard Smallwood - O what a night
TTITLE10=103rd Street Gospel Choir - The most beautiful night of the year
TTITLE11=Johnny Thompson Singers - The virgin Mary had a baby boy
TTITLE12=Odetta - Nobody knows you when you're down and out
TTITLE13=Joan Orleans - Bridge over troubled water
TTITLE14=Sweet Inspirations - Every day will be like a holiday
TTITLE15=103rd Street Gospel Choir - White Christmas
TTITLE16=Sweet Inspirations - Why am I treated so bad
TTITLE17=Louis Armstrong - Go down Moses
TTITLE18=Etta James - Swing low (Sweet chariot)
TTITLE19=Staple Singers - Glory, glory hallelujah
TTITLE20=Johnny Thompson Singers - Amazing grace
EXTD=
EXTT0=
EXTT1=
EXTT2=
EXTT3=
EXTT4=
EXTT5=
EXTT6=
EXTT7=
EXTT8=
EXTT9=
EXTT10=
EXTT11=
EXTT12=
EXTT13=
EXTT14=
EXTT15=
EXTT16=
EXTT17=
EXTT18=
EXTT19=
EXTT20=
PLAYORDER=
